<?xml version="1.0" encoding="utf-8"?>
<!-- Generator: Adobe Illustrator 19.0.0, SVG Export Plug-In . SVG Version: 6.00 Build 0)  -->
<svg version="1.1" id="Layer_1" xmlns:svg="http://www.w3.org/2000/svg"
	 xmlns="http://www.w3.org/2000/svg" xmlns:xlink="http://www.w3.org/1999/xlink" x="0px" y="0px" viewBox="0 -0.1 612 151.6"
	 style="enable-background:new 0 -0.1 612 151.6;" xml:space="preserve">
<style type="text/css">
	.st0{fill:#A65B45;}
	.st1{fill:#FFF480;}
	.st2{fill:#A65B45;stroke:#A65B45;stroke-width:0.216;}
	.st3{fill:#FFF480;stroke:#A65B45;stroke-width:0.216;}
</style>
<g>
	<path id="path16" class="st0" d="M51.7,150.8h7.7l-24.7-57l23.1-52.9h-6.9L30,88.2L9.3,40.9H1.7l23.1,52.9L0,150.8h7.1l22.3-51.2
		C29.4,99.6,51.7,150.8,51.7,150.8z"/>
	<path id="path18" class="st0" d="M115.4,47.5v103.4h7.4v-110h-41l-3.3,83.3c-0.3,11-1.1,20.3-13.5,20.3v6.6h1.4
		c16.2-0.3,18.7-12.1,19.3-27l2.8-76.5C88.6,47.5,115.4,47.5,115.4,47.5z"/>
	<path id="path20" class="st0" d="M146.1,40.9v110h7.2v-110C153.3,40.9,146.1,40.9,146.1,40.9z"/>
	<path id="path22" class="st0" d="M183.5,87.7V47.5h37.2v-6.6h-44.5v110h24.2c17.1,0,24.3-9.6,24.3-26.2v-12.4
		c0-17.6-8.6-24.5-25.6-24.5C199.2,87.7,183.5,87.7,183.5,87.7z M183.5,144.2V94.5h15.7c12.3,0,18.4,3.8,18.4,17.3v13.4
		c0,12.4-4.9,19.2-17.1,19.2H183.5z"/>
	<path id="path24" class="st1" d="M148.8,50.8c3.9,0,6.6-3.4,6.6-8.2c0-6-4.7-12.1-4.9-12.3c-0.4-0.6-1-0.9-1.7-0.9
		c-0.6,0-1.2,0.3-1.7,0.9c-0.2,0.3-4.9,6.3-4.9,12.3C142.2,47.5,144.9,50.8,148.8,50.8z"/>
	<path id="path26" class="st1" d="M144.6,65.1c1.5-0.4,2.7-1.3,3.5-2.7c0.4-0.8,0.6-1.6,0.7-2.6c0.1,0.9,0.3,1.8,0.7,2.6
		c0.7,1.4,1.9,2.3,3.5,2.7c3.7,0.9,7.4-1.7,9.1-6.3c2.1-5.8-0.3-12.6-0.4-12.9c-0.2-0.7-0.7-1.1-1.3-1.3c-0.6-0.2-1.3-0.1-1.9,0.4
		c-0.3,0.2-6.9,4.9-9,10.7c-0.4,1-0.6,2-0.6,2.9c-0.1-0.9-0.3-1.9-0.6-2.9c-2.1-5.8-8.7-10.5-9-10.7c-0.6-0.4-1.3-0.5-1.9-0.4
		c-0.6,0.2-1.1,0.7-1.3,1.3c-0.1,0.3-2.5,7.1-0.4,12.9C137.2,63.5,140.9,66,144.6,65.1z"/>
	<path id="path28" class="st1" d="M145.9,81.4c1.4-0.6,2.3-1.7,2.7-3.1c0.1-0.2,0.1-0.5,0.2-0.8c0,0.3,0.1,0.5,0.2,0.8
		c0.4,1.4,1.4,2.4,2.7,3c3.4,1.5,7.7-0.4,10.4-4.6c3.4-5.3,2.7-12.4,2.6-12.7c-0.1-0.7-0.4-1.2-0.9-1.6c-0.3-0.2-0.6-0.2-0.9-0.2
		c-0.3,0-0.7,0.1-1,0.2c-0.3,0.1-8,3.7-11.4,9c-0.9,1.5-1.5,2.9-1.7,4.3c-0.2-1.4-0.7-2.8-1.7-4.3c-3.4-5.3-11.1-8.9-11.4-9
		c-0.3-0.2-0.7-0.2-1-0.2c-0.3,0-0.6,0.1-0.9,0.2c-0.5,0.3-0.9,0.9-1,1.6c0,0.3-0.8,7.4,2.6,12.7C138.2,81,142.5,82.9,145.9,81.4z"
		/>
	<path id="path30" class="st1" d="M146.5,96.1c1.2-0.7,2-1.8,2.2-3.2c0-0.2,0-0.4,0.1-0.6c0,0.2,0,0.4,0.1,0.6
		c0.2,1.4,1,2.5,2.2,3.2c3.1,1.9,7.7,0.4,11-3.4c4.2-4.9,4.6-12,4.7-12.3c0-0.7-0.2-1.3-0.7-1.7c-0.5-0.4-1.2-0.5-1.9-0.2
		c-0.3,0.1-8.5,2.8-12.8,7.7c-1.7,1.9-2.6,3.9-2.6,5.7c-0.1-1.8-1-3.8-2.6-5.7c-4.2-4.9-12.4-7.6-12.8-7.7c-0.7-0.2-1.4-0.1-1.9,0.2
		c-0.5,0.4-0.7,1-0.7,1.7c0,0.3,0.4,7.4,4.7,12.3C138.8,96.6,143.4,98,146.5,96.1z"/>
	<path id="path32" class="st1" d="M148.8,107.3c0.2,1.3,0.8,2.4,1.9,3.2c3,2,7.6,0.9,11.3-2.8c4.6-4.6,5.6-11.7,5.7-12
		c0.1-0.7-0.1-1.3-0.5-1.7c-0.3-0.3-0.7-0.4-1.2-0.4c-0.2,0-0.4,0-0.6,0.1c-0.4,0.1-8.8,2.3-13.4,6.9c-1.8,1.9-2.9,3.8-3.1,5.6
		c-0.2-1.8-1.2-3.8-3.1-5.6c-4.6-4.6-13-6.8-13.4-6.9c-0.2-0.1-0.4-0.1-0.6-0.1c-0.5,0-0.9,0.1-1.2,0.4c-0.4,0.4-0.6,1-0.5,1.7
		c0,0.3,1,7.4,5.7,12c3.7,3.7,8.3,4.8,11.3,2.8C148,109.8,148.6,108.7,148.8,107.3L148.8,107.3z"/>
	<path id="path34" class="st1" d="M154.3,9.9c0,0,0.6,25.5,0.6,25.5c0,0,0.6,1.8,0.7,2.2c0-0.4,0-0.7,0-0.7
		c0.1-1.8,0.3-5.5,0.6-26.9c0-0.3-0.8-0.8-1-0.8C155.1,9.1,154.3,9.6,154.3,9.9z"/>
	<path id="path36" class="st1" d="M160.9,9.9l0.5,25.1c0,0,0.2,8.7,0.1,8.6c0.3,0.2,0.5,0.5,0.7,0.8c0-2.6,0.7-34.4,0.7-34.4
		c0-0.3-0.8-0.8-1-0.8C161.6,9.1,160.9,9.6,160.9,9.9z"/>
	<path id="path38" class="st1" d="M147.8,9.9L147.8,9.9c0,0,0.6,17,0.7,18.3c0.1,0,0.3,0,0.3,0c0,0,0.2,0,0.3,0
		c0-1.2,0.7-18.3,0.7-18.3c0-0.3-0.8-0.8-1-0.8C148.5,9.1,147.8,9.6,147.8,9.9z"/>
	<path id="path40" class="st1" d="M141.2,9.9c0,0,0.6,26.3,0.6,27.5c0.2-0.5,0.7-2,0.7-2l0.7-25.5c0-0.3-0.8-0.8-1-0.8
		S141.2,9.6,141.2,9.9z"/>
	<path id="path42" class="st1" d="M134.7,9.9c0,0,0.6,33.9,0.7,34.4c0.2-0.3,0.5-0.5,0.7-0.7l0.7-33.7c0-0.3-0.8-0.8-1-0.8
		C135.4,9.1,134.7,9.6,134.7,9.9z"/>
	<path id="path44" class="st0" d="M142.4,78.4c-0.9-1.5-0.9-3-0.2-3.4c0.8-0.4,2.1,0.4,3,1.8c0.6,0.9,0.8,1.9,0.7,2.6
		c0.3-0.3,0.5-0.6,0.6-0.9c0.4-1.2,0-2.9-1.2-4.7v0c-2.4-3.8-7.8-6.6-9.3-7.4c-0.1,1.5-0.2,6.4,2.2,10.1c1.8,2.9,4.2,4,6,3.7
		C143.6,79.9,143,79.2,142.4,78.4z"/>
	<path id="path46" class="st0" d="M152.2,73.7L152.2,73.7c-1.1,1.8-1.5,3.5-1.2,4.7c0.1,0.4,0.3,0.7,0.6,0.9
		c-0.1-0.7,0.1-1.7,0.7-2.6c0.9-1.5,2.2-2.3,3-1.8c0.8,0.4,0.7,2-0.2,3.4c-0.5,0.9-1.2,1.5-1.9,1.8c1.8,0.2,4.2-0.9,6-3.7
		c2.3-3.6,2.3-8.6,2.2-10.1C160,67.1,154.6,69.9,152.2,73.7L152.2,73.7z"/>
	<path id="path48" class="st0" d="M159.1,59.3c1.5-4.2,0.1-9.2-0.3-10.3c-1.2,0.9-5.8,4.6-7.3,8.7c-0.7,1.9-0.7,3.6,0,4.7
		c0.1,0.2,0.3,0.4,0.4,0.6c-0.2-0.7-0.1-1.7,0.3-2.7c0.7-1.6,1.9-2.6,2.8-2.3c0.9,0.3,1,1.9,0.4,3.5c-0.5,1.2-1.3,2-2,2.3
		C155.5,64.3,157.9,62.5,159.1,59.3z"/>
	<path id="path50" class="st0" d="M147.1,46.4c0-1.7,0.8-3.1,1.7-3.1c0.9,0,1.7,1.4,1.7,3.1c0,0.9-0.2,1.8-0.6,2.3
		c1.7-0.6,2.9-2.6,2.9-5.3c0-4.3-3.2-8.9-4-10c-0.7,1-4,5.6-4,10c0,2.7,1.1,4.7,2.9,5.3C147.3,48.2,147.1,47.4,147.1,46.4z"/>
	<path id="path52" class="st0" d="M142.3,61.5c-0.7-1.6-0.5-3.1,0.4-3.5c0.9-0.3,2.1,0.7,2.8,2.3c0.4,1,0.5,2,0.3,2.7
		c0.2-0.2,0.3-0.4,0.4-0.6c0.7-1.2,0.6-2.8,0-4.7c-1.5-4.1-6.1-7.8-7.3-8.7c-0.3,1.1-1.8,6.1-0.3,10.3c1.1,3.2,3.5,5,5.8,4.5
		C143.6,63.5,142.8,62.7,142.3,61.5z"/>
	<path id="path54" class="st0" d="M142.7,108.4c-1.3-1.2-1.8-2.7-1.2-3.3c0.6-0.6,2.2-0.2,3.5,1c0.8,0.8,1.3,1.6,1.4,2.3
		c0.1-0.2,0.2-0.4,0.2-0.6c0.1-1.3-0.7-2.9-2.3-4.5h0c-3.2-3.3-9-5.2-10.8-5.7c0.3,1.6,1.4,6.3,4.6,9.4c2,2,4.1,2.9,5.7,2.9
		c0.4,0,0.8-0.1,1.2-0.2C144.3,109.5,143.4,109.1,142.7,108.4z"/>
	<path id="path56" class="st0" d="M142.6,93.5c-1.1-1.3-1.4-2.8-0.7-3.4c0.7-0.5,2.2,0.1,3.2,1.4c0.7,0.9,1.1,1.9,1,2.6
		c0.2-0.3,0.3-0.6,0.4-0.9c0.2-1.3-0.5-3-1.9-4.6c-3-3.4-8.6-5.7-10.4-6.3c0.2,1.5,0.9,6.3,3.8,9.7c1.9,2.2,4.1,3.2,5.7,3.2
		c0.3,0,0.7,0,1-0.1C144.1,94.9,143.2,94.3,142.6,93.5z"/>
	<path id="path58" class="st0" d="M150.9,107.8c0,0.2,0.1,0.4,0.2,0.6c0.1-0.7,0.6-1.6,1.4-2.3c1.3-1.2,2.9-1.6,3.5-1
		c0.6,0.6,0.1,2.1-1.2,3.3c-0.7,0.7-1.6,1.1-2.3,1.2c0.4,0.1,0.8,0.2,1.2,0.2c1.6,0,3.7-0.9,5.7-2.9c3.1-3.1,4.3-7.8,4.6-9.4
		c-1.8,0.5-7.6,2.4-10.8,5.7C151.6,104.8,150.8,106.5,150.9,107.8z"/>
	<path id="path60" class="st0" d="M159.5,92c2.9-3.3,3.6-8.1,3.8-9.7c-1.7,0.6-7.4,2.8-10.4,6.3c-1.4,1.7-2.1,3.3-1.9,4.6
		c0.1,0.3,0.2,0.6,0.4,0.9c-0.1-0.7,0.3-1.7,1-2.6c1.1-1.3,2.5-1.9,3.2-1.4c0.7,0.5,0.4,2-0.7,3.4c-0.7,0.8-1.5,1.4-2.2,1.5
		c0.3,0.1,0.6,0.1,1,0.1C155.4,95.1,157.5,94.2,159.5,92z"/>
	<path id="path62" class="st0" d="M264.7,139.1c3.6-3.7,8.1-7.8,13.4-12.3c6.8-5.6,11.2-8.5,13.2-8.5c1.3,0,2.2,0.4,2.5,1.3
		c0.2,0.4,0.3,1.1,0.3,2.2c0,0.7-0.1,1.3-0.3,1.8c-0.2,0.5-0.5,1.2-0.9,1.9c-1.3,2.3-2.5,4.3-3.7,5.9c-1.6,2.1-2.3,3.3-2.3,3.5
		l0.5,0.7c0.4,0,1.2-0.6,2.5-1.8c2.7-2.5,5.2-4.6,7.5-6.4c0.9-0.7,2.9-2,5.9-4c3.6-2.3,5.8-3.4,6.7-3.4c0.9,0,1.6,0.6,2.2,1.7
		c0.5,1.1,0.8,2.3,0.8,3.5c0,0.7-0.5,1.5-1.5,2.4c-2.1,1.9-3.2,3-3.3,3.2c-1,1.1-1.9,2.4-2.9,4.1c-1.1,1.9-1.7,3.4-1.7,4.5
		c0,1.8,0.9,2.7,2.7,2.7c2.1,0,3.6-0.9,4.4-2.7c0.8-1.8,2.5-2.7,5-2.7l0.6,0.4v0.8c-0.5,1.9-3.2,4.6-7.9,8.1c-4.7,3.5-8,5.3-9.9,5.3
		c-1,0-1.8-0.2-2.6-0.7c-1.1-0.7-1.6-1.7-1.6-3c0-1.5,0.1-2.8,0.4-3.9c0.3-1.1,0.9-2.5,1.7-4.1c0.6-1.1,1.4-2.6,2.3-4.3
		c0.7-1.1,1-1.9,1-2.3c0-0.4-0.3-0.5-0.8-0.5c-0.5,0-2.1,1.1-4.8,3.2c-2.1,1.7-3.6,3-4.6,4c-2.2,2.2-4.3,4.3-6.5,6.4
		c-2.1,1.9-3.8,2.9-5,2.9c-0.5,0-1-0.3-1.4-0.8c-0.5-0.5-0.7-1.3-0.7-2.3c0-0.4,0.2-1.2,0.5-2.2c0.3-1.1,1.1-2.5,2.2-4.2
		c1.1-1.8,2.2-3.6,3.4-5.4c0.4-0.7,0.6-1.2,0.6-1.4c0-1-0.7-1.4-2-1.4c-2.1,0-5.6,2.6-10.6,7.8c-1.1,1.3-2.9,3.5-5.1,6.8
		c-1.4,2.1-2.6,3.2-3.5,3.2s-1.7-0.5-2.3-1.4c-0.9-1.4-1.4-3.8-1.4-7c0-3.5,0.6-6.2,1.8-8.2c0.2-0.4,1.4-2,3.5-4.7
		c2.1-2.7,3.6-4.5,4.4-5.2c1.5-1.3,3.2-1.9,5.2-1.9c0.7,0,1.2,0.2,1.6,0.5c0.4,0.4,0.6,0.8,0.6,1.2c0,0.7-0.6,1.6-1.8,2.9
		c-1.2,1.3-2.4,2.6-3.6,4c-1.3,1.4-2.5,2.8-3.8,4.2c-1,1.3-1.5,2.3-1.5,3.1c0,0.5,0.1,1,0.3,1.5C264.6,138.6,264.7,139,264.7,139.1
		L264.7,139.1z M282.7,117.2c-0.6-0.5-0.9-1.8-0.9-3.7c0-3,3.6-5.9,10.8-8.8c6.4-2.5,11.6-3.8,15.6-3.8c2,0,3.5,0.4,4.5,1.3
		c1,0.8,1.2,1.7,0.8,2.4l-2.6,4.3c-0.9-0.4-1.9-0.7-3-0.9c-1.1-0.2-2.6-0.2-4.5-0.2c-3,0-6.5,0.8-10.4,2.3
		C288.2,112,284.8,114.3,282.7,117.2z M349.3,119.9c0.4,0.8,0.9,1.7,1.4,2.4c0.4,0.8,0.5,1.6,0.5,2.3c0,0.7-0.3,1.5-0.9,2.4
		c-1,1.4-1.8,2.7-2.4,3.7c-0.8,1.3-1.7,2.6-2.5,4c-0.8,1.4-1.2,2.7-1.2,3.9c0,1.3,0.3,2.2,1,2.7c0.7,0.5,1.4,0.8,2.3,0.8
		c1.1,0,3.2-1,6.4-3c0.2-0.1,0.9-0.7,2.3-1.6c0.6-0.4,1.1-0.6,1.4-0.6l0.4,0.5c0,0.5-1.9,2.6-5.6,6.2c-2.4,2.3-4.4,4.1-6,5.1
		c-2,1.3-3.8,2-5.3,2c-1.3,0-2.4-0.4-3.4-1.2c-1-0.8-1.5-2-1.5-3.6c0-2.2,0.5-4.5,1.6-6.9c0.7-1.5,1.4-3,2.1-4.5
		c-5.8,5.9-10.3,10.1-13.5,12.3c-2,1.4-3.6,2.2-4.8,2.2c-1.5,0-2.7-1.2-3.7-3.6c-1-2.4-1.5-4.8-1.5-7.3c0-3,1.4-6.1,4.1-9.4
		c2.1-2.5,4.9-5,8.4-7.3c2.8-1.8,5.9-3.5,9.5-5.2c4.1-1.9,7.1-2.8,9.2-2.8c1.4,0,2.5,0.4,3.2,1.1c0.8,0.7,1.2,1.4,1.2,2.2
		c0,0.5-0.3,1.1-0.9,1.6C350.4,118.9,349.9,119.4,349.3,119.9L349.3,119.9z M321.4,138.9c0,0.5,0.1,1.1,0.2,1.5
		c0.2,0.5,0.5,0.8,0.9,1c0.2,0.1,0.7,0.1,1.3,0c2.8-0.7,6.7-3.2,11.6-7.5c4.9-4.3,7.4-7.4,7.4-9.1c0-0.4-0.2-0.6-0.4-0.9
		c-0.3-0.2-0.8-0.3-1.4-0.3c-4,0-8.3,1.7-12.8,5.1C323.6,132.1,321.4,135.5,321.4,138.9z"/>
	<path id="path64" class="st0" d="M158,42.4c0.4-0.1,0.7-0.2,1.1-0.3l0,0c0-2.3-0.1-4.8-0.2-7.1l-0.3-15.1
		c-0.1,3.6-0.1,7.2-0.2,10.9c-0.1,2-0.1,4.1-0.2,6.1c0,0.3,0,0.5,0,0.8L158,42.4L158,42.4z"/>
	<path id="path66" class="st0" d="M152,15.2c-0.2,4.3-0.3,8.5-0.5,12.8c0.3,0.2,0.6,0.5,0.8,0.8c0,0,0,0,0,0c-0.1-2-0.1-4.1-0.2-6.1
		C152.2,20.2,152.1,17.7,152,15.2z"/>
	<path id="path68" class="st0" d="M145.2,28.8c0.2-0.3,0.5-0.6,0.8-0.8c-0.1-4.3-0.3-8.6-0.4-12.9L145.2,28.8z"/>
	<path id="path70" class="st0" d="M151,67c-0.8-0.4-1.6-0.9-2.2-1.5c-0.6,0.6-1.4,1.1-2.2,1.5c0.8,0.8,1.6,1.7,2.2,2.6
		C149.4,68.7,150.1,67.8,151,67z"/>
	<path id="path72" class="st0" d="M150.5,83.5c-0.7-0.3-1.2-0.7-1.8-1.1c-0.5,0.5-1.1,0.8-1.8,1.1c0.4,0.3,0.7,0.7,1,1.1
		c0.3,0.3,0.5,0.6,0.8,1c0.2-0.3,0.5-0.7,0.8-1C149.9,84.2,150.2,83.9,150.5,83.5z"/>
	<path id="path74" class="st0" d="M150.5,98.6c-0.2-0.1-0.4-0.2-0.7-0.4c-0.4-0.2-0.7-0.5-1-0.7c-0.3,0.3-0.7,0.5-1,0.7
		c-0.2,0.1-0.4,0.2-0.7,0.4c0.1,0.1,0.2,0.2,0.3,0.3c0.5,0.5,0.9,1,1.4,1.5c0.4-0.5,0.9-1.1,1.4-1.5
		C150.2,98.8,150.3,98.7,150.5,98.6z"/>
	<path id="path76" class="st0" d="M138.5,42.1c0.4,0.1,0.7,0.2,1,0.3l-0.1-4.9c-0.1-4.6-0.2-9.2-0.3-13.7c0-1.7-0.1-3.4-0.1-5.1
		L138.5,42.1z"/>
	<g id="g78">
		<path id="path80" class="st2" d="M502.3,53.5c11.9-4.8,20.4-2.7,28.9-0.5c7.2,1.8,14.5,3.7,23.8,0.5l1.4,4.1
			c-10.6,3.6-18.4,1.6-26.2-0.4c-7.8-2-15.6-3.9-26.2,0.3C503.9,57.5,502.3,53.5,502.3,53.5z"/>
		<path id="path82" class="st3" d="M500.9,56.4c11.9-4.8,20.4-2.7,28.9-0.5c7.2,1.8,14.5,3.7,23.8,0.5l1.4,4.1
			c-10.6,3.6-18.4,1.6-26.2-0.4c-7.8-2-15.6-3.9-26.2,0.3L500.9,56.4z"/>
		<path id="path84" class="st0" d="M437.5,149.4h7.5l-33.5-58.7l31.4-51.2h-7.5l-35.8,58.1V39.4h-7.2v110h7.2v-39.7l7.5-11.9
			L437.5,149.4z"/>
		<path id="path86" class="st0" d="M492.2,125l5.5,24.3h7.2L480.4,39.3h-10.5l-24,110.1h6.6l5.5-24.3H492.2z M474.9,47.6l16.2,71.2
			h-32C459,118.7,474.9,47.6,474.9,47.6z"/>
		<path id="path88" class="st0" d="M599.3,125.4l5.5,24.3h7.2L587.5,39.7H577l-24,110.1h6.6l5.5-24.3H599.3z M582,48l16.2,71.2h-32
			C566.1,119.1,582,48,582,48z"/>
		<path id="path90" class="st0" d="M567.8,22.1l-28.6,127.3h-21L489.5,23.1h7.2l9.7,40.5l1.4,6.3l15.8,70.8h10.1l16-70.8l1.4-6.3
			l9.9-41.5C561,22.1,567.8,22.1,567.8,22.1z"/>
		<path id="path92" class="st2" d="M521.8,42.5c2.3-10.6,7.8-15.5,13.3-20.4c4.7-4.2,9.4-8.4,11.6-16.4l3.5,1
			c-2.5,9.1-7.6,13.6-12.7,18.1c-5.1,4.5-10.2,9-12.2,18.5L521.8,42.5L521.8,42.5z"/>
		<path id="path94" class="st3" d="M537.6,36.8c2.3-10.6,7.8-15.5,13.3-20.4c4.7-4.2,9.4-8.4,11.6-16.4l3.5,1
			c-2.5,9.1-7.6,13.6-12.7,18.1c-5.1,4.5-10.2,9-12.2,18.5C541.1,37.6,537.6,36.8,537.6,36.8z"/>
	</g>
</g>
</svg>
